<mxfile host="app.diagrams.net" modified="2020-05-13T16:58:28.975Z" agent="5.0 (Windows NT 10.0; Win64; x64) AppleWebKit/537.36 (KHTML, like Gecko) Chrome/81.0.4044.113 Safari/537.36" etag="QsC7hXAwmzK_zNBTFJzl" version="13.1.1" type="github">
  <diagram name="Page-1" id="822b0af5-4adb-64df-f703-e8dfc1f81529">
    <mxGraphModel dx="1422" dy="794" grid="1" gridSize="10" guides="1" tooltips="1" connect="1" arrows="1" fold="1" page="1" pageScale="1" pageWidth="1100" pageHeight="850" background="#ffffff" math="0" shadow="0">
      <root>
        <mxCell id="0" />
        <mxCell id="1" parent="0" />
        <mxCell id="xhwJJ0OM37ccdsf0M2uV-1" value="" style="points=[];aspect=fixed;html=1;align=center;shadow=0;dashed=0;image;image=img/lib/allied_telesis/computer_and_terminals/Laptop.svg;" vertex="1" parent="1">
          <mxGeometry x="446" y="439.85" width="207.32" height="210.29" as="geometry" />
        </mxCell>
        <mxCell id="xhwJJ0OM37ccdsf0M2uV-2" value="" style="edgeStyle=orthogonalEdgeStyle;html=1;endArrow=block;elbow=vertical;startArrow=block;startFill=1;endFill=1;strokeColor=#545B64;rounded=0;" edge="1" parent="1">
          <mxGeometry width="100" relative="1" as="geometry">
            <mxPoint x="286" y="560" as="sourcePoint" />
            <mxPoint x="446" y="560" as="targetPoint" />
            <Array as="points">
              <mxPoint x="316" y="560" />
              <mxPoint x="316" y="560" />
            </Array>
          </mxGeometry>
        </mxCell>
        <mxCell id="xhwJJ0OM37ccdsf0M2uV-3" value="&lt;br&gt;User" style="shape=actor;whiteSpace=wrap;html=1;" vertex="1" parent="1">
          <mxGeometry x="190" y="480" width="90" height="110" as="geometry" />
        </mxCell>
        <mxCell id="xhwJJ0OM37ccdsf0M2uV-8" style="edgeStyle=orthogonalEdgeStyle;rounded=0;orthogonalLoop=1;jettySize=auto;html=1;exitX=0.5;exitY=1;exitDx=0;exitDy=0;fontSize=20;" edge="1" parent="1">
          <mxGeometry relative="1" as="geometry">
            <mxPoint x="900" y="470" as="sourcePoint" />
            <mxPoint x="900" y="470" as="targetPoint" />
          </mxGeometry>
        </mxCell>
        <mxCell id="xhwJJ0OM37ccdsf0M2uV-10" value="Backend" style="whiteSpace=wrap;html=1;align=center;verticalAlign=middle;treeFolding=1;treeMoving=1;newEdgeStyle={&quot;edgeStyle&quot;:&quot;elbowEdgeStyle&quot;,&quot;startArrow&quot;:&quot;none&quot;,&quot;endArrow&quot;:&quot;none&quot;};fontSize=20;" vertex="1" parent="1">
          <mxGeometry x="850" y="450" width="170" height="60" as="geometry" />
        </mxCell>
        <mxCell id="xhwJJ0OM37ccdsf0M2uV-11" value="" style="edgeStyle=elbowEdgeStyle;elbow=vertical;startArrow=none;endArrow=none;rounded=0;fontSize=20;" edge="1" target="xhwJJ0OM37ccdsf0M2uV-10" parent="1">
          <mxGeometry relative="1" as="geometry">
            <mxPoint x="740" y="590" as="sourcePoint" />
          </mxGeometry>
        </mxCell>
        <mxCell id="xhwJJ0OM37ccdsf0M2uV-12" value="Frontend" style="whiteSpace=wrap;html=1;align=center;verticalAlign=middle;treeFolding=1;treeMoving=1;newEdgeStyle={&quot;edgeStyle&quot;:&quot;elbowEdgeStyle&quot;,&quot;startArrow&quot;:&quot;none&quot;,&quot;endArrow&quot;:&quot;none&quot;};fontSize=20;" vertex="1" parent="1">
          <mxGeometry x="690" y="520" width="150" height="60" as="geometry" />
        </mxCell>
        <mxCell id="xhwJJ0OM37ccdsf0M2uV-13" value="" style="edgeStyle=elbowEdgeStyle;elbow=vertical;startArrow=none;endArrow=none;rounded=0;fontSize=20;" edge="1" target="xhwJJ0OM37ccdsf0M2uV-12" parent="1" source="xhwJJ0OM37ccdsf0M2uV-1">
          <mxGeometry relative="1" as="geometry">
            <mxPoint x="660" y="660" as="sourcePoint" />
            <Array as="points">
              <mxPoint x="530" y="590" />
            </Array>
          </mxGeometry>
        </mxCell>
      </root>
    </mxGraphModel>
  </diagram>
</mxfile>
